<?xml version="1.0" encoding="UTF-8" standalone="no"?>
<svg
   viewBox="0 0 384 512"
   version="1.1"
   id="svg4"
   sodipodi:docname="ehk.svg"
   inkscape:version="1.1.2 (b8e25be833, 2022-02-05)"
   xmlns:inkscape="http://www.inkscape.org/namespaces/inkscape"
   xmlns:sodipodi="http://sodipodi.sourceforge.net/DTD/sodipodi-0.dtd"
   xmlns="http://www.w3.org/2000/svg"
   xmlns:svg="http://www.w3.org/2000/svg">
  <defs
     id="defs8" />
  <sodipodi:namedview
     id="namedview6"
     pagecolor="#ffffff"
     bordercolor="#666666"
     borderopacity="1.0"
     inkscape:pageshadow="2"
     inkscape:pageopacity="0.0"
     inkscape:pagecheckerboard="0"
     showgrid="false"
     inkscape:zoom="1.2617188"
     inkscape:cx="191.80185"
     inkscape:cy="255.99999"
     inkscape:window-width="1920"
     inkscape:window-height="1017"
     inkscape:window-x="-8"
     inkscape:window-y="-8"
     inkscape:window-maximized="1"
     inkscape:current-layer="svg4" />
  <!--! Font Awesome Pro 6.1.1 by @fontawesome - https://fontawesome.com License - https://fontawesome.com/license (Commercial License) Copyright 2022 Fonticons, Inc. -->
  <path
     d="M 242.72446,52.309595 V 153.95665 H 344.37152 Z M 217.3127,153.95665 V 52.309595 H 77.547989 c -21.052061,0 -38.11765,17.06559 -38.11765,38.11765 V 420.78018 c 0,21.04412 17.065589,38.11765 38.11765,38.11765 H 306.25387 c 21.05206,0 38.11765,-17.06559 38.11765,-38.11765 V 179.36842 H 243.43917 c -14.77059,0 -26.12647,-11.35589 -26.12647,-25.41177 z m 50.82353,137.93824 v 29.04088 c 0,6.05912 -4.84412,10.90324 -10.87942,10.90324 L 217.3127,331.1243 v 39.93618 c 0,6.75794 -4.84412,11.60206 -10.87942,11.60206 h -29.0647 c -6.0353,0 -10.87941,-4.84412 -10.87941,-10.87942 V 331.1243 l -39.94412,0.71471 c -6.0353,0 -10.87941,-4.84412 -10.87941,-10.87942 v -29.0647 c 0,-6.0353 4.84411,-10.87941 10.87941,-10.87941 h 39.94412 v -39.94412 c 0,-6.0353 4.84411,-10.87941 10.87941,-10.87941 h 29.04088 c 6.05912,0 10.90324,4.84411 10.90324,10.87941 v 39.94412 h 39.93617 c 6.04324,0 10.88736,4.84411 10.88736,10.87941 z"
     id="path2"
     style="fill:#ffffff;stroke-width:0.794118" />
</svg>
